<?xml version="1.0" encoding="utf-8"?>
<!-- Generator: Adobe Illustrator 18.1.1, SVG Export Plug-In . SVG Version: 6.00 Build 0)  -->
<svg version="1.1" id="Lager_1" xmlns="http://www.w3.org/2000/svg" xmlns:xlink="http://www.w3.org/1999/xlink" x="0px" y="0px"
	 viewBox="183.6 -1.8 229.6 115.2" enable-background="new 183.6 -1.8 229.6 115.2" xml:space="preserve">
<g transform="translate(0.000000,194.000000) scale(0.100000,-0.100000)">
	<path fill="#0090AA" d="M1964.7,1878.3c-17-17-30.4-33.3-30.4-36.8c0-6.4-33.9-37.4-41.5-37.4c-2.9,0-5.3-52-5.3-117.5v-118.1
		l53.8-54.4l53.8-54.9h45.6h45.6v72.5v73.1l-18.7,1.8l-19.3,1.8v76v76l50.9,1.8l50.9,1.8l1.8-48.5l1.8-48.5l71.9-1.8l71.3-1.8v71.9
		v71.9l-50.9,51.4l-50.3,50.9h-99.9h-100.5L1964.7,1878.3z"/>
	<path fill="#0090AA" d="M2349.3,1577.3v-331.4l54.4-54.4l53.8-53.8h42.7h42.1v73.1v73.1h-20.5h-20.5v312.7v312.7h-76h-76V1577.3z"
		/>
	<path fill="#0090AA" d="M2618.2,1596.6v-312.7h-26.3h-26.3v-73.1v-73.1h48.5h47.9l54.4,54.4l53.8,53.8v332v331.4h-76h-76V1596.6z"
		/>
	<path fill="#0090AA" d="M2818.1,1525.3l1.8-384.6l77.7-1.8l77.2-1.8v386.3v385.8h-78.9h-78.9L2818.1,1525.3z"/>
	<path fill="#0090AA" d="M2998.1,1836.2v-73.1h32.1h32.1v-111.1v-111.1h-32.1h-32.7l1.8-71.3l1.8-71.9l52-1.8l52.6-1.8l57.3,57.3
		l57.3,57.3v143.2v143.2l-56.7,57.3l-56.1,56.7H3053h-54.9V1836.2z"/>
	<path fill="#0090AA" d="M3267,1523.5v-385.8h166.6h166.6v73.1v73.1h-90.6h-90.6l1.2,238.5l1.8,237.9l89.4,1.8l88.8,1.8v72.5v73.1
		h-166.6H3267V1523.5z"/>
	<path fill="#0090AA" d="M3646.9,1523.5v-385.8h78.9h78.9v385.8v385.8h-78.9h-78.9V1523.5z"/>
	<path fill="#0090AA" d="M3833.9,1836.2v-73.1h38h38v-84.8v-84.2l-36.2-1.8l-36.8-1.8l-1.8-71.9l-1.8-71.3h38.6h38v-154.9v-154.9
		h78.9h78.9v145.5v145.5l-45,44.4l-45.6,44.4l45.6,44.4l45,44.4v95.3v94.7l-56.7,56.1l-57.3,56.7h-59.6h-60.2V1836.2z"/>
	<path fill="#0090AA" d="M3454,1544v-73.1h55.5h55.5v73.1v73.1h-55.5H3454V1544z"/>
	<path fill="#0090AA" d="M2110.8,1534.1l1.8-71.9h19.3h18.7v-88.8v-89.4h-55.5h-55.5v52.6v52.6h-76h-76v-69.6v-69l56.7-56.1
		l57.3-56.7h93.5h93.5l54.4,54.4l53.8,53.8v118.7v118.7l-56.7,61.4l-57.3,60.8h-36.8h-36.8L2110.8,1534.1z"/>
	<path fill="#0090AA" d="M2204.4,1050.7l-18.7-17.5v-74.2v-74.2l21-19.3l20.5-19.9h122.7h122.2v64.3v64.3h-70.7h-70.1l1.8-18.7
		l1.8-19.3l42.7-1.8l42.1-1.8v-22.8v-23.4h-87.7h-87.7v70.1v70.1h114.6h114l-1.8,19.3l-1.8,18.7l-122.7,1.8l-122.7,1.2
		L2204.4,1050.7z"/>
	<path fill="#0090AA" d="M2522.9,1063.6c-2.3-1.8-4.1-52-4.1-111.1v-107h23.4h23.4v43.8v43.8h46.8c44.4,0,48.5-1.2,61.4-15.8
		c7.6-9.4,14.6-18.1,14.6-20.5c0-2.9,10.5-15.2,23.4-28.1c20.5-20.5,26.9-23.4,50.9-23.4c25.7,0,26.3,0.6,17.5,10.5
		c-5.8,5.8-9.9,12.9-9.9,15.2c0,2.3-9.4,15.8-20.5,29.2c-23.4,28.6-24.5,32.7-9.9,32.7c5.3,0,19.9,8.2,32.1,18.1
		c19.9,16.4,21.6,19.9,21,47.9c-0.6,64.9-8.2,68.4-153.7,68.4C2577.3,1067.6,2524.7,1065.9,2522.9,1063.6z M2738,1000.4V977
		l-80.1-1.8l-80.7-1.8v26.9v26.9l80.7-1.8l80.1-1.8V1000.4z"/>
	<path fill="#0090AA" d="M2928,1059.5c0-4.7-2.3-9.4-5.3-10.5c-5.3-1.8-35.7-65.5-35.7-74.2c0-2.9-1.8-6.4-4.1-7.6
		c-2.9-0.6-18.1-28.6-34.5-62l-30.4-60.2l30.4,1.8l29.8,1.8l43.8,87.7c50.3,99.9,57.3,105.8,81.2,61.4
		c29.2-54.9,41.5-80.7,41.5-86.5c0-3.5,1.8-7,4.7-8.2c2.3-0.6,9.9-14,17.5-29.2c13.4-27.5,14-28.1,42.1-28.1h28.1l-55.5,111.1
		l-55.5,111.1H2977C2938.5,1067.6,2928,1065.9,2928,1059.5z"/>
	<path fill="#0090AA" d="M3161.7,956.6V845.5h29.2h29.2v43.8v43.3l83.6,1.8l83,1.8l1.8,19.3l1.8,18.7h-84.8h-85.3v26.3v26.3h99.4
		h99.4v20.5v20.5h-128.6h-128.6V956.6z"/>
	<path fill="#0090AA" d="M3454,1063c0-2.9,21.6-26.3,48.5-52.6L3551,963l-58.4-58.4l-59-59h35.7h35.7l37.4,37.4
		c20.5,20.5,42.7,38.6,49.1,40.9c9.4,2.9,21-5.3,52.6-37.4c40.3-40.3,40.9-40.9,71.3-40.9c17,0,31,1.2,31,2.3
		c0,1.2-22.2,24-49.1,50.3c-26.9,26.3-50.3,52.6-52,58.4c-1.8,7.6,11.1,24,45.6,57.9c26.3,25.7,46.8,48.5,45,50.3s-15.8,2.9-31,2.9
		c-26.9,0-30.4-2.3-68.4-38c-30.4-28.6-41.5-36.2-46.8-31c-4.1,4.1-7,5.3-7,2.3c0-2.3-15.8,11.7-35.1,31
		c-33.9,33.9-36.2,35.7-64.3,35.7C3466.8,1067.6,3454,1065.3,3454,1063z"/>
</g>
</svg>
