<?xml version="1.0" encoding="UTF-8" standalone="no"?>
<!-- Generator: Adobe Illustrator 16.0.4, SVG Export Plug-In . SVG Version: 6.00 Build 0)  -->

<svg
   xmlns:dc="http://purl.org/dc/elements/1.1/"
   xmlns:cc="http://creativecommons.org/ns#"
   xmlns:rdf="http://www.w3.org/1999/02/22-rdf-syntax-ns#"
   xmlns:svg="http://www.w3.org/2000/svg"
   xmlns="http://www.w3.org/2000/svg"
   xmlns:sodipodi="http://sodipodi.sourceforge.net/DTD/sodipodi-0.dtd"
   xmlns:inkscape="http://www.inkscape.org/namespaces/inkscape"
   version="1.1"
   id="Layer_1"
   x="0px"
   y="0px"
   width="5000px"
   height="1300px"
   viewBox="0 0 5000 1300"
   enable-background="new 0 0 5000 1300"
   xml:space="preserve"
   inkscape:version="0.91 r13725"
   sodipodi:docname="3ds.svg"><metadata
     id="metadata83"><rdf:RDF><cc:Work
         rdf:about=""><dc:format>image/svg+xml</dc:format><dc:type
           rdf:resource="http://purl.org/dc/dcmitype/StillImage" /></cc:Work></rdf:RDF></metadata><defs
     id="defs81" /><sodipodi:namedview
     pagecolor="#ffffff"
     bordercolor="#666666"
     borderopacity="1"
     objecttolerance="10"
     gridtolerance="10"
     guidetolerance="10"
     inkscape:pageopacity="0"
     inkscape:pageshadow="2"
     inkscape:window-width="1920"
     inkscape:window-height="1021"
     id="namedview79"
     showgrid="false"
     inkscape:zoom="5.2133569"
     inkscape:cx="4923.5559"
     inkscape:cy="197.33447"
     inkscape:window-x="-8"
     inkscape:window-y="-8"
     inkscape:window-maximized="1"
     inkscape:current-layer="g3" /><g
     id="g3"><g
       id="g5"><path
         d="M2733.686,1141.688c0,5.645-5.641,11.288-11.284,11.288H2517.23c-5.651,0-11.295-5.645-11.295-11.288    V992.976c0-5.642,5.644-11.284,11.295-11.284h205.17c5.645,0,11.284,5.644,11.284,11.284L2733.686,1141.688L2733.686,1141.688z     M2724.277,936.511l-208.93,0.034c-30.123,0-54.586,24.448-54.586,54.576v148.691c0,30.127,24.464,54.594,54.586,54.594h208.93    c30.125,0,54.593-24.466,54.593-54.594V991.121c0-30.128-24.468-54.576-54.593-54.576"
         id="path7"
         fill="#A09D9E" /><path
         d="M318.679,714.398v192h-48.934V646.644h41.407L506.911,836.75V646.644h37.646h9.413v259.756h-37.646    L318.679,714.398z"
         id="path9"
         fill="#231F20" /><path
         d="M802.438,714.398v192h-48.942V646.644h41.414L990.671,836.75V646.644h37.646h9.409v259.756h-37.646    L802.438,714.398z"
         id="path11"
         fill="#231F20" /><path
         d="M1801.949,714.398v192h-48.941V646.644h41.414l195.761,190.106V646.644h37.646h9.409v259.756h-37.646    L1801.949,714.398z"
         id="path13"
         fill="#231F20" /><path
         d="M668.791,646.644h9.414v259.756h-48.941V646.644H668.791z"
         id="path15"
         fill="#231F20" /><path
         d="M1365.25,646.644h9.41v45.174h-116.697v214.581h-50.825V691.816H1090.43v-45.174h272.936L1365.25,646.644    L1365.25,646.644z"
         id="path17"
         fill="#231F20" /><path
         d="M1672.072,646.644h9.41v45.174h-205.179v58.354h159.999v45.175h-159.999v67.765h205.179v45.176H1427.37    V648.516h244.703L1672.072,646.644L1672.072,646.644z"
         id="path19"
         fill="#231F20" /><path
         d="M2304.521,861.227h-146.817V691.817h1.886h146.816c47.059,0,62.12,45.173,62.12,84.705    c0,39.529-16.948,84.704-62.12,84.704 M2385.468,684.291c-18.823-24.479-47.059-37.646-80.946-37.646h-191.988v259.755h191.988    c33.889,0,62.123-13.181,80.946-37.646c16.938-22.592,26.35-54.586,26.35-92.229    C2411.816,738.875,2402.406,706.871,2385.468,684.291"
         id="path21"
         fill="#231F20" /><path
         d="M2733.686,851.812c0,5.646-5.641,11.296-11.284,11.296H2517.23c-5.651,0-11.295-5.65-11.295-11.296    V703.113c0-5.652,5.644-11.297,11.295-11.297h205.17c5.645,0,11.284,5.645,11.284,11.297L2733.686,851.812L2733.686,851.812z     M2724.277,646.644h-208.93c-30.123,0-54.586,24.466-54.586,54.584v150.585c0,30.119,24.464,54.587,54.586,54.587h208.93    c30.125,0,54.593-24.468,54.593-54.587V701.229C2778.87,671.108,2754.402,646.644,2724.277,646.644"
         id="path23"
         fill="#231F20" /><path
         d="M4286.6,1088.989c48.951,18.821,154.353,35.75,237.181,35.75c90.353,0,127.994-30.11,127.994-69.629    c0-33.897-33.873-54.596-133.638-92.242c-133.653-48.942-229.646-88.472-229.646-175.051c0-90.356,116.707-143.06,295.526-143.06    c95.994,0,127.992,5.645,190.106,16.94v86.586c-60.237-11.296-112.938-30.119-195.767-30.119    c-88.453,0-126.104,28.236-126.104,56.471c0,41.415,58.351,62.113,160,97.886c141.172,50.815,220.215,90.347,220.215,175.054    c0,88.469-97.865,150.583-321.865,150.583c-90.347,0-154.354-5.645-224.004-16.947L4286.6,1088.989L4286.6,1088.989z"
         id="path25"
         fill="#231F20" /><path
         d="M3814.145,720.051h-105.4v400.94h105.4c161.869,0,265.398-69.65,265.398-199.537    C4079.543,791.575,3977.907,720.051,3814.145,720.051 M4098.369,1158.636c-52.705,24.468-150.589,39.522-237.166,39.522h-331.282    V646.644h331.282c86.577,0,186.354,15.057,239.061,39.521c127.992,58.353,169.403,148.713,169.403,237.175    c0,86.589-41.412,178.828-169.403,237.176"
         id="path27"
         fill="#231F20" /><path
         d="M3296.505,895.102c0,0,154.356-24.464,154.356-120.465c0-94.113-163.767-131.763-338.816-131.763    c-158.123,0-261.65,18.825-261.65,18.825v84.703c71.525-16.939,139.297-32.004,233.414-32.004    c99.759,0,176.929,30.116,176.929,71.533c0,50.817-75.294,80.937-239.041,80.937h-75.294v77.177h69.633    c171.301,0,269.188,26.358,269.188,88.474c0,56.472-86.596,90.348-195.769,90.348c-94.117,0-180.698-20.699-252.237-39.522v92.226    c33.896,5.644,124.241,24.466,289.885,24.466c184.461,0,346.352-60.221,346.352-163.749c0-88.474-111.064-139.298-176.946-139.298    "
         id="path29"
         fill="#CF181F" /><path
         d="M4877.65,1120.991h-16.947v-9.411h45.184v9.411h-16.946v52.701h-11.289L4877.65,1120.991L4877.65,1120.991    z"
         id="path31"
         fill="#231F20" /><path
         d="m 4964.232,1122.867 0,0 -7.519,22.592 -9.414,26.341 -9.408,0 -7.537,-26.341 c -1.877,-7.538 -3.771,-16.948 -5.646,-24.466 l 0,0 -1.875,26.341 -1.895,24.466 -11.286,0 3.769,-60.218 15.056,0 7.521,24.464 c 1.895,7.52 3.766,15.057 5.658,20.7 l 0,0 c 1.877,-7.52 3.75,-15.057 5.645,-20.7 l 7.52,-24.464 15.072,0 3.751,60.218 -11.286,0 z"
         id="path33"
         inkscape:connector-curvature="0"
         style="fill:#231f20"
         sodipodi:nodetypes="cccccccccccccccccccccc" /></g><g
       id="g35"><g
         id="g37"><path
           d="M1333.176,489.202c-8.967,7.705-17.577,15.88-26.974,23.019c-21.851,16.598-46.976,23.232-74.174,23.044     c-18.419-0.128-36.585-1.756-53.845-8.725c-43.067-17.388-69.026-49.676-79.338-94.251c-3.615-15.636-4.89-32.104-5.004-48.206     c-0.486-69.454-0.164-138.914-0.096-208.369c0.018-18.188,0.339-15.434,15.636-15.539c26.404-0.176,52.81-0.213,79.213-0.464     c4.446-0.042,6.615,1.747,6.904,6.061c0.027,0.414,0.042,0.83,0.042,1.246c-0.005,45.337-0.007,90.676-0.021,136.012     c-0.01,29.929-0.562,59.869,0.12,89.782c0.482,21.167,13.286,38.974,31.461,43.434c17.363,4.262,37.742,1.133,48.106-19.016     c4.835-9.404,7.966-19.165,8.024-29.796c0.138-25.372,0.437-50.746,0.346-76.116c-0.167-46.983-0.582-93.963-0.854-140.946     c-0.059-10.023,1.055-11.012,11.092-11.002c27.037,0.021,54.074-0.009,81.107,0.014c9.037,0.009,10.326,1.399,10.315,10.611     c-0.039,40.969,0.004,81.941-0.124,122.911c-0.091,29.307-0.405,58.612-0.619,87.919c-0.096,13.046,1.683,25.606,8.32,37.215     c6.335,11.083,15.374,17.562,28.23,18.97c22.742,2.493,39.604-7.321,47.204-28.864c2.573-7.297,4.241-15.257,4.465-22.971     c0.707-24.315,0.735-48.656,0.655-72.985c-0.154-46.565-0.596-93.13-0.848-139.696c-0.069-12.742,0.362-13.058,12.799-13.087     c26.619-0.069,53.238-0.158,79.859-0.207c9.564-0.016,10.529,1.297,10.281,10.909c-0.299,11.64-0.148,23.291-0.215,34.936     c-0.364,64.435-1.143,128.87-0.914,193.303c0.097,27.251-6.587,52.458-20.209,75.448c-12.444,21.001-29.961,37.22-52.267,48.436     c-36.105,18.153-72.87,17.528-110.222,5.783c-22.1-6.947-40.54-19.897-56-37.104c-0.972-1.082-1.891-2.208-2.888-3.265     c-0.26-0.277-0.721-0.369-1.09-0.542C1332.164,487.803,1332.67,488.502,1333.176,489.202z"
           id="path39" /><path
           d="M904.634,383.56c-32.028,0-64.057,0.018-96.086-0.012c-9.467-0.008-11.348-1.891-11.349-11.317     c-0.001-17.676,0.017-35.354,0.136-53.03c0.057-8.519,1.712-10.159,10.377-10.136c42.631,0.122,85.263,0.286,127.894,0.515     c10.019,0.052,11.188-1.146,7.742-10.682c-10.663-29.488-32.015-47.607-61.837-55.36c-32.042-8.331-62.542-4.504-89.17,16.505     c-18.469,14.574-29.018,34.378-34.178,57.219c-6.998,30.976-1.882,60.036,14.63,86.823c17.5,28.392,44.189,40.942,76.896,42.236     c20.262,0.802,39.52-3.264,56.881-13.499c10.338-6.096,20.559-8.433,32.471-8.094c25.975,0.74,51.988,0.196,77.986,0.244     c15.614,0.027,16.566,1.623,9.014,15.229c-20.373,36.696-49.574,63.454-88.307,80.197     c-37.538,16.226-76.388,18.055-116.216,13.409c-33.983-3.963-64.199-17.03-90.834-38.024     c-17.816-14.043-31.433-31.937-41.998-52.065c-15.725-29.961-23.303-61.962-25.19-95.66c-1.327-23.708,0.101-46.864,7.366-69.609     c12.799-40.068,37.814-70.645,72.176-94.122c38.441-26.265,81.247-36.584,127.242-33.454     c45.19,3.072,84.576,20.758,117.665,51.499c34.602,32.146,52.989,72.483,56.405,119.449c0.762,10.493,0.056,21.243-1.303,31.701     c-2.232,17.194-12.708,27.458-30.298,28.975c-8.27,0.713-16.87,0.403-25.17,0.446C959.934,383.084,932.283,383.56,904.634,383.56     C904.634,383.749,904.635,383.373,904.634,383.56z"
           id="path41" /><path
           d="M618.034,408.121c0,36.812,0.021,73.625-0.018,110.437c-0.008,7.106-1.214,8.328-8.436,8.329     c-26.622,0.018-53.243-0.012-79.863-0.141c-8.911-0.044-9.571-0.929-9.571-9.711c0.006-64.887,0.07-129.775-0.044-194.66     c-0.063-36.939-27.745-68.128-64.396-72.664c-29.479-3.646-55.502,3.013-74.841,27.098     c-10.442,13.005-15.981,28.194-16.004,44.982c-0.09,63.847-0.011,127.692,0.029,191.539c0.009,13.531,0.057,13.536-13.354,13.536     c-24.958,0.002-49.916,0-74.873,0.005c-9.23,0.001-10.474-1.173-10.443-10.332c0.183-54.487,0.424-108.972,0.576-163.458     c0.046-16.633-0.797-33.299-0.056-49.897c1.381-30.944,12.038-58.784,30.262-83.79c19.287-26.465,44.654-44.774,75.002-56.635     c25.6-10.007,52.248-14.04,79.457-12.617c27.778,1.452,54.416,7.701,79.456,20.982c39.866,21.147,66.819,52.715,80.654,95.452     c4.622,14.281,6.67,29.048,6.498,44.226c-0.373,32.435-0.114,64.88-0.114,97.32C617.98,408.121,618.007,408.121,618.034,408.121z     "
           id="path43" /></g><g
         id="g45"><g
           id="g47"><g
             id="g49"><path
               fill="#A4C70F"
               d="M157.546,372.947c-1.475-17.878-1.817-35.754-0.088-53.619c0.79-8.155-0.478-9.592-8.909-10.667       c-28.09-3.586-56.171-7.231-84.257-10.853c-7.243-0.933-14.479-1.903-21.731-2.764c-2.052-0.244-4.146-0.254-6.218-0.211       c-4.842,0.101-7.297,2.396-7.618,7.146c-0.411,6.096-0.411,12.235-1.148,18.292c-2.072,16.979-0.989,33.968-0.473,50.956       c0.191,6.287,0.935,12.568,1.603,18.834c0.248,2.324,0.935,4.617,1.539,6.893c0.534,2.021,3.808,3.396,7.377,2.969       c6.445-0.769,12.869-1.69,19.306-2.524c16.986-2.206,33.971-4.421,50.962-6.594c14.128-1.808,28.267-3.543,42.395-5.358       c1.324-0.17,2.643-0.591,3.892-1.077c2.207-0.86,3.471-2.396,3.387-4.853C157.486,377.329,157.546,375.138,157.546,372.947z"
               id="path51" /></g><g
             id="g53"><path
               fill="#E6001E"
               d="M181.499,231.236c7.661-16.221,16.302-31.873,26.733-46.478c4.761-6.668,4.381-8.546-2.382-13.692       c-22.535-17.15-45.031-34.349-67.544-51.528c-5.804-4.429-11.585-8.888-17.436-13.258c-1.656-1.24-3.466-2.295-5.281-3.293       c-4.244-2.333-7.516-1.575-10.169,2.378c-3.404,5.075-6.473,10.393-10.141,15.269c-10.287,13.668-17.842,28.923-25.889,43.891       c-2.979,5.541-5.475,11.352-8.029,17.111c-0.947,2.14-1.498,4.467-2.114,6.74c-0.549,2.019,1.601,4.845,4.903,6.26       c5.969,2.556,11.993,4.973,17.983,7.466c15.813,6.583,31.631,13.158,47.431,19.771c13.139,5.5,26.253,11.065,39.394,16.558       c1.232,0.511,2.586,0.81,3.91,1.012c2.341,0.36,4.206-0.338,5.36-2.51C179.256,235,180.404,233.133,181.499,231.236z"
               id="path55" /></g><g
             id="g57"><path
               fill="#009BEB"
               d="M207.295,509.562c-10.216-14.746-19.45-30.055-26.884-46.394c-3.394-7.455-5.211-8.065-13.048-4.781       c-26.122,10.94-52.264,21.823-78.397,32.732c-6.738,2.81-13.49,5.589-20.2,8.469c-1.9,0.816-3.72,1.854-5.49,2.929       c-4.145,2.509-5.122,5.722-3.027,9.996c2.692,5.484,5.764,10.801,8.152,16.415c6.695,15.744,16.128,29.914,25.068,44.367       c3.31,5.351,7.094,10.416,10.804,15.509c1.38,1.891,3.119,3.529,4.781,5.201c1.473,1.483,4.995,1.037,7.872-1.119       c5.198-3.889,10.301-7.896,15.458-11.84c13.608-10.402,27.209-20.814,40.837-31.188c11.333-8.632,22.708-17.204,34.036-25.839       c1.062-0.811,1.995-1.835,2.832-2.88c1.483-1.848,1.809-3.812,0.507-5.896C209.434,513.387,208.391,511.459,207.295,509.562z"
               id="path59" /></g></g><g
           id="g61"><g
             id="g63"><path
               fill="#F9A81D"
               d="M1715.6,371.354c1.435-17.877,1.769-35.755,0.086-53.619c-0.766-8.155,0.464-9.591,8.652-10.667       c27.285-3.584,54.562-7.231,81.844-10.853c7.033-0.933,14.062-1.902,21.105-2.764c1.994-0.245,4.027-0.254,6.04-0.209       c4.706,0.102,7.087,2.394,7.399,7.144c0.398,6.097,0.398,12.235,1.114,18.292c2.017,16.98,0.963,33.969,0.46,50.957       c-0.184,6.288-0.906,12.568-1.555,18.834c-0.24,2.324-0.909,4.616-1.495,6.892c-0.521,2.023-3.699,3.396-7.167,2.97       c-6.26-0.77-12.501-1.689-18.753-2.525c-16.498-2.205-32.997-4.421-49.499-6.592c-13.723-1.808-27.456-3.545-41.178-5.359       c-1.288-0.171-2.569-0.589-3.78-1.076c-2.144-0.862-3.374-2.397-3.291-4.855C1715.66,375.735,1715.6,373.544,1715.6,371.354z"
               id="path65" /></g><g
             id="g67"><path
               fill="#F5AA00"
               d="M1711.877,371.243c1.476-17.877,1.817-35.753,0.087-53.619c-0.788-8.156,0.479-9.592,8.905-10.667       c28.084-3.585,56.156-7.23,84.234-10.853c7.24-0.934,14.473-1.902,21.723-2.765c2.052-0.245,4.146-0.254,6.218-0.209       c4.841,0.102,7.292,2.394,7.616,7.144c0.41,6.097,0.408,12.237,1.146,18.292c2.073,16.98,0.991,33.97,0.475,50.956       c-0.19,6.289-0.935,12.568-1.603,18.834c-0.249,2.324-0.935,4.617-1.539,6.893c-0.534,2.022-3.806,3.396-7.374,2.969       c-6.444-0.769-12.866-1.688-19.302-2.526c-16.98-2.204-33.961-4.42-50.944-6.592c-14.125-1.806-28.258-3.544-42.384-5.361       c-1.321-0.168-2.644-0.588-3.89-1.075c-2.206-0.861-3.47-2.397-3.386-4.854       C1711.938,375.624,1711.877,373.434,1711.877,371.243z"
               id="path69" /></g><g
             id="g71"><path
               fill="#009582"
               d="M1687.93,229.531c-7.658-16.221-16.297-31.873-26.725-46.479c-4.76-6.667-4.379-8.546,2.381-13.691       c22.528-17.15,45.021-34.35,67.523-51.529c5.804-4.428,11.584-8.886,17.432-13.258c1.656-1.239,3.465-2.294,5.279-3.293       c4.243-2.332,7.514-1.573,10.165,2.38c3.403,5.076,6.474,10.391,10.139,15.267c10.282,13.669,17.838,28.923,25.88,43.892       c2.979,5.542,5.474,11.354,8.028,17.113c0.948,2.138,1.498,4.465,2.114,6.74c0.547,2.017-1.602,4.843-4.906,6.26       c-5.963,2.555-11.986,4.972-17.977,7.465c-15.808,6.583-31.621,13.158-47.416,19.771c-13.136,5.5-26.243,11.065-39.382,16.557       c-1.231,0.514-2.585,0.812-3.909,1.013c-2.341,0.359-4.203-0.338-5.357-2.509       C1690.174,233.295,1689.025,231.429,1687.93,229.531z"
               id="path73" /></g><g
             id="g75"><path
               fill="#E62C8B"
               d="M1662.143,507.858c10.215-14.745,19.445-30.056,26.877-46.391c3.395-7.459,5.208-8.068,13.045-4.785       c26.113,10.941,52.247,21.825,78.375,32.731c6.734,2.812,13.483,5.591,20.193,8.471c1.9,0.816,3.718,1.853,5.489,2.928       c4.143,2.509,5.121,5.721,3.024,9.995c-2.692,5.484-5.763,10.8-8.149,16.417c-6.692,15.742-16.122,29.914-25.062,44.365       c-3.307,5.352-7.091,10.416-10.802,15.51c-1.376,1.891-3.116,3.531-4.778,5.2c-1.472,1.483-4.994,1.037-7.871-1.116       c-5.195-3.89-10.295-7.898-15.452-11.843c-13.604-10.403-27.201-20.812-40.825-31.188       c-11.329-8.629-22.701-17.203-34.025-25.838c-1.062-0.811-1.994-1.836-2.832-2.88c-1.48-1.848-1.807-3.812-0.505-5.896       C1660.005,511.683,1661.046,509.755,1662.143,507.858z"
               id="path77" /></g></g></g></g></g></svg>