<?xml version="1.0" encoding="utf-8"?>
<!-- Generator: Adobe Illustrator 18.1.1, SVG Export Plug-In . SVG Version: 6.00 Build 0)  -->
<svg version="1.1" id="Ebene_1" xmlns="http://www.w3.org/2000/svg" xmlns:xlink="http://www.w3.org/1999/xlink" x="0px" y="0px"
	 viewBox="19.8 -4.4 527.8 112.6" enable-background="new 19.8 -4.4 527.8 112.6" xml:space="preserve">
<g>
	<polygon points="19.8,-4.4 45.9,-4.4 45.9,3.3 38.3,3.3 38.3,107.7 29,107.7 29,3.3 19.8,3.3 	"/>
	<path d="M69.6,100.1h10.2V26.9h8.9v73.2c0,4.7-4.3,8.1-8.8,8.1H69.6c-4.7,0-8.8-3.8-8.8-8.2V26.9h8.8V100.1z"/>
	<path d="M261.5,44.8h13.6v63.5h-19.2c-4.1,0-9.1-3.2-9.1-7.9V4.4c0-4,4.2-8.3,8.9-8.3h10.5c4.7,0,8.8,4.3,8.8,8.2v22.7h-9.2V4.6
		h-10.4v95.8h10.7V52.6h-4.7V44.8z"/>
	<path d="M393.4,69.3v38.4h-8.7V34.1c0-3.4,3.4-7,7.4-7h14.2v7.1h-13v27.2h10.8v7.9H393.4z"/>
	<path d="M423.8,27.2h9v29.3l5.1,5.1l5-5V27.2h8.9v27.9c0,3.4-8.8,12.4-8.8,12.4S452,76.4,452,80v27.8h-8.4v-29l-5.4-5.5l-5.4,5.4
		v29h-9V80.1c0-3.4,9.5-12.8,9.5-12.8s-9.5-8.8-9.5-12.5V27.2z"/>
	<path d="M127.4,69.5c3.1,0,7.1-3.6,7.1-8.5V34.5c0-3.8-4.4-7.4-9.3-7.4h-18.3v80.9h8.5v-38h3.2l9.4,37.9h8.3L127.4,69.5z
		 M125.7,61.6h-10.1V35h10.1V61.6z"/>
	<path d="M314.4,69.2c3.1,0,7.1-3.6,7.1-8.5V34.3c0-3.8-4.4-7.4-9.3-7.4h-18.3v80.9h8.5v-38h3.2l9.4,37.8h8.3L314.4,69.2z
		 M312.5,61.2h-10.1V34.7h10.1V61.2z"/>
	<path d="M179.6,71.4c0-3.6-3.8-6-3.8-6s3.8-2.5,3.8-6V34.9c0-4.7-4.1-7.7-8.3-7.7H152v80.7h19.3c3.9,0,8.3-2.4,8.3-7.7
		C179.6,100.2,179.7,75,179.6,71.4z M170.9,100h-10.1V69.9h10.1V100z M170.9,61.5h-10.1V35h10.1V61.5z"/>
	<path d="M216.6,26.6h-5.1h-4.9c-5,0-8.8,4.3-8.8,7.6v65.5c0,4.3,4.7,8.1,8.8,8.1h10.9c4.3,0,8.6-4.4,8.6-7.9V34
		C226,31,221.9,26.6,216.6,26.6z M216.8,99.5h-9.8v-65h9.8V99.5z"/>
	<path d="M358.3,27.2h-11.2c-5,0-8,4.1-8,7.4v73.2h8.5V69.3h10.7v38.4h8.5V35C366.8,30.1,363.5,27.2,358.3,27.2z M358.1,61.3h-10.1
		V35.3h10.1V61.3z"/>
</g>
<path d="M498.3,31.2c-17.5,4.7-29.8,20.6-29.8,38.3c0,21.5,18.1,39.6,39.6,39.6c25.4,0,44.7-24.8,38.3-49.1
	c-4.8-18.1-20.4-30.2-38.7-30C504.8,30,500.6,30.5,498.3,31.2z M501.3,53.8c0.9,0.8,1.7,2.8,1.7,4.7c0,2.7-0.3,3.1-2.3,3.1
	c-1.7,0-2.3-0.5-2.3-1.9c0-1.7-0.7-1.9-5.6-1.9h-5.6v11.6v11.6h5.6c4.9,0,5.6-0.2,5.6-1.9c0-1.4,0.7-1.9,2.3-1.9c2,0,2.3,0.5,2.3,3
	c0,5.1-2,6.3-10.5,6.3c-11,0-10.9,0.1-10.9-17c0-17.5-0.1-17.4,10.5-17.4C497.7,52.2,499.9,52.6,501.3,53.8z M532.9,53.8
	c1.5,1.3,1.7,3.1,1.7,15.5c0,18.2,0.7,17.4-14.6,17.4h-11.5v-2.8c0-1.9,0.5-2.8,1.4-2.8c1.2,0,1.4-2,1.4-11.6s-0.2-11.6-1.4-11.6
	c-0.9,0-1.4-0.9-1.4-2.8v-2.8h11.4C529.1,52.2,531.5,52.5,532.9,53.8z"/>
<path d="M516.9,69.4v11.6h6.1h6.1V69.4V57.8h-6.1h-6.1V69.4z"/>
</svg>
