<?xml version="1.0" encoding="utf-8"?>
<!-- Generator: Adobe Illustrator 18.1.1, SVG Export Plug-In . SVG Version: 6.00 Build 0)  -->
<svg version="1.1" id="Lager_1" xmlns="http://www.w3.org/2000/svg" xmlns:xlink="http://www.w3.org/1999/xlink" x="0px" y="0px"
	 viewBox="0 0 595.3 113.4" enable-background="new 0 0 595.3 113.4" xml:space="preserve">
<g>
	<path fill="#F4BD1B" d="M115.4,96.5c0,4.8-2.6,8.6-5.8,8.6c-0.6,0-1.1-0.1-1.6-0.3c-0.4,0.2-0.9,0.3-1.4,0.3H76
		c0.1-0.5,0.1-1.1,0.1-1.7c0-5.5-4.9-9.9-11-9.9s-11,4.4-11,9.9c0,0.6,0,1.1,0.1,1.7h-32c-0.5,0-1-0.1-1.5-0.4
		c-0.5,0.2-1,0.4-1.5,0.4c-2.8,0-5-3.9-5-8.6c0-4.8,2.2-8.6,5-8.6V76.8c-6.5-1.9-11.2-7.6-11.2-14.3c0-6.7,4.7-12.4,11.2-14.3V11.5
		c0-1.6,1.3-2.9,2.9-2.9h84.3c1.6,0,2.9,1.3,2.9,2.9v36.9c5.7,2.2,9.7,7.7,9.7,14s-4,11.8-9.7,14v11.5
		C112.8,87.8,115.4,91.7,115.4,96.5z"/>
</g>
<g>
	<path fill="#F4BD1B" d="M112.7,96.6c0,4.7-2.6,8.5-5.8,8.5c-0.6,0-1.1-0.1-1.6-0.3c-0.4,0.2-0.9,0.3-1.4,0.3H73.4
		c0.1-0.5,0.1-1.1,0.1-1.6c0-5.4-4.9-9.8-11-9.8s-11,4.4-11,9.8c0,0.6,0,1.1,0.1,1.6h-32c-0.5,0-1-0.1-1.5-0.4
		c-0.5,0.2-1,0.4-1.5,0.4c-2.8,0-5-3.8-5-8.5s2.2-8.5,5-8.5V77.1C10.2,75.2,5.5,69.6,5.5,63s4.7-12.2,11.2-14.1V12.7
		c0-1.6,1.3-2.9,2.9-2.9H104c1.6,0,2.9,1.3,2.9,2.9v36.4c5.7,2.2,9.7,7.6,9.7,13.8s-4,11.6-9.7,13.8v11.3
		C110.1,88.1,112.7,91.9,112.7,96.6z"/>
</g>
<ellipse fill="#FFFFFF" cx="41.5" cy="45.1" rx="18.6" ry="18.5"/>
<ellipse fill="#FFFFFF" cx="84.8" cy="45.1" rx="18.6" ry="18.5"/>
<g transform="translate(0.000000,428.000000) scale(0.100000,-0.100000)">
	<path fill="#010202" d="M271.9,4229.7c-50.8-7.6-90.6-39.3-109.8-87.4l-6.9-16.9l-0.7-161.1l-0.7-160.9l-6.6-3.9
		c-12.8-7.6-37.1-30.2-49.6-45.9c-39.3-49.1-50.3-113.9-30.2-175.3c11.3-34.4,36.8-67.3,71.2-91.8l15.5-11.1v-32.4v-32.7l-14.2-8.8
		c-18.9-11.5-33.6-28-42.2-46.7c-27.3-58.2-3.9-124.3,53.5-152l16.5-7.9l82.3-2c45.2-1.2,129.2-1.7,186.4-1.5l104.4,0.7l2.9,16.9
		c6.6,35.6,25,62.4,52.1,75.6c15.2,7.6,18.2,8.1,41,8.1c22.8,0,25.8-0.5,41-8.1c27-13.3,45.4-39.8,51.8-74.4l3.2-18.2l104.4-0.7
		c57.2-0.2,141.2,0.2,186.4,1.5l82.3,2l16.5,7.9c81,39.3,87.7,151.5,11.3,198.7l-14.2,8.8v32.7v32.4l15.5,11.1
		c34.4,24.6,59.9,57.5,71.2,91.8c20.1,61.4,9.1,126.2-30.2,175.3c-12.5,15.7-36.8,38.3-49.6,45.9l-6.6,3.9l-0.7,160.9l-0.7,161.1
		l-6.9,16.9c-16.7,42-48.4,70.7-92.8,84.5c-12,3.7-45.4,4.2-373,4.4C447.3,4231.5,279.3,4230.7,271.9,4229.7z M1013.6,4177.4
		c24.3-9.3,45.9-32.4,54.5-58.2c2.2-6.1,3.2-55.5,3.9-177.3l0.7-168.7l14.2-7.6c58.7-31.4,90.6-94.3,78.1-154
		c-9.1-42.2-36.1-76.1-77.1-96.5l-15.5-7.6V3440c0-51.8,0.7-67.8,3.2-68.5c1.5-0.5,9.1-2.7,16.5-4.7c16.2-4.4,32.2-17.2,40-31.9
		c4.2-7.9,5.4-14.2,5.4-29.7c0-22.8-4.9-34.6-19.9-47.9c-18.2-16-11.3-15.2-185.2-16.7l-158.4-1.2l-12,24.1
		c-19.2,38.6-48.4,63.6-86.4,73.7c-18.9,5.2-59.2,5.2-78.1,0c-37.8-10.1-67.5-35.4-86.7-74.2l-11.8-23.6l-158.4,1.2
		c-173.9,1.5-167,0.7-185.2,16.7c-15,13.3-19.9,25-19.9,47.9c0,15.5,1.2,21.9,5.4,29.7c7.9,14.7,23.8,27.5,40,31.9
		c7.4,2,15,4.2,16.5,4.7c2.5,0.7,3.2,16.7,3.2,68.5v67.5l-15.2,7.6c-64.8,32.2-94.1,98-73.2,165.3c10.3,33.4,39.3,66.6,74.2,85.2
		l14.2,7.6v158.9c0,97.5,1,165,2.5,174.6c4.4,26.8,17.7,47.9,38.8,61.4c24.3,15.5,2.9,14.7,399.6,14.2
		C979.7,4181.9,1003.3,4181.6,1013.6,4177.4z"/>
	<path fill="#010202" d="M372.6,4021c-79.6-20.6-137-89.9-143.9-172.6c-6.6-84,48.9-167.5,129.7-194.3
		c49.9-16.7,97.5-13.5,145.6,9.6c52.1,25.3,88.7,71.2,102.2,128.4c4.4,17.7,4.9,26.5,3.9,50.8c-2.2,52.8-17.9,88.9-55.7,126.7
		c-20.9,21.1-26.3,25-49.1,36.1c-14.2,6.9-33.6,14.2-43.5,16.2C437,4027.4,395.9,4026.9,372.6,4021z M462,3996.4
		c49.6-12.5,92.1-49.6,112.2-98c3.7-8.8,7.6-20.6,8.6-26l1.7-9.8l-5.9,5.4c-3.2,2.9-11.1,6.6-17.4,8.3c-20.9,5.6-42-5.4-49.9-26
		c-14.5-37.8,26.5-72.2,61.9-51.6c5.6,3.4,10.6,5.4,10.6,4.2c0-5.4-8.6-30.2-14.7-42.2c-21.6-43-60.9-74.7-108.1-87.4
		c-23.8-6.4-62.4-5.9-86,1.2c-30.5,9.3-50.6,21.4-72.7,43.2c-16.7,16.7-21.9,23.8-31.2,43.2c-14.5,30.2-17.7,44.4-17.4,77.1
		c0.2,22.1,1.5,30.7,6.6,46.7c19.4,58.9,66.3,101.2,128.2,114.9C402.8,4002.8,444.1,4001.1,462,3996.4z"/>
	<path fill="#010202" d="M805.1,4021c-118.1-31.2-178.3-162.8-123.8-271.4c24.6-48.6,70.2-85.7,122.8-99.7c24.8-6.9,68-7.4,92.8-1.2
		c53.5,13,102.4,51.8,126.7,100.9c15.5,31.2,20.1,54.8,18.9,93.1c-1,28-2,34.9-8.6,53.5c-22.1,63.6-77.1,112.7-140.5,126.2
		C869.9,4027.4,827.2,4026.7,805.1,4021z M894.2,3996.4c58.9-15,105.8-62.6,120.8-122.8c5.6-22.3,3.7-68.8-3.7-90.9
		c-16.2-47.4-55.3-87.7-101.9-104.6c-93.1-33.6-198.2,23.3-219.8,119.4l-2.2,9.6l8.8-6.6c7.4-5.6,11.1-6.6,25-6.6s17.7,1,25.3,6.9
		c11.5,8.8,16.9,19.4,17.2,33.4c0.2,25.3-17.4,43.2-42.5,43.2c-11.1,0-16-1.5-23.8-6.6l-10.1-6.6l3.7,14
		c14.7,56.7,62.4,103.9,121.1,119.4C832.3,4002.8,871.4,4002.3,894.2,3996.4z"/>
	<path fill="#010202" d="M1415.1,4217c-0.7-1.7-1-53.5-0.7-114.9l0.7-111.7l22.8-0.7l22.6-0.7v45.7v45.4h39.3h39.3v23.3v23.3h-39.3
		h-39.3v23.3v23.1l38.8,0.7l38.6,0.7v22.1v22.1l-60.9,0.7C1429.6,4219.9,1415.8,4219.4,1415.1,4217z"/>
	<path fill="#010202" d="M1623.1,4196.1c-56.5-79.8-141.2-201.4-142.2-204.1c-1-2.5,4.2-2.9,24.1-2.5l25.5,0.7l12,17.9l12.3,17.7
		h37.3h37.6l0.7-17.7l0.7-17.9l21.6-0.7l21.4-0.7v115.7v115.4H1657H1640L1623.1,4196.1z M1630,4099.6v-29.5h-21.1
		c-11.5,0-20.6,1-20.1,2.2c1,2.2,39.8,56.5,40.8,56.7C1629.7,4129.1,1630,4115.8,1630,4099.6z"/>
	<path fill="#010202" d="M1687.7,4217c-0.7-1.7-1-53.5-0.7-114.9l0.7-111.7l22.6-0.7l22.8-0.7l0.5,53.3l0.7,53.3l21.9-50.1
		c12-27.5,23.1-51.6,24.3-53c1.5-2.2,9.3-3.2,22.6-3.2s21.1,1,22.6,3.2c1.2,1.5,12,24.6,24.1,50.8c12,26.3,22.6,48.9,23.8,50.3
		c1,1.2,2-21.9,2-51.1v-53.3h22.1h22.1v115.4v115.7l-24.8-0.7l-25-0.7l-32.4-72.9c-17.7-40.3-32.7-73.7-33.4-74.2
		c-0.5-0.7-16,32.4-34.1,73.7l-32.9,74.7H1713C1695.8,4219.9,1688.4,4218.9,1687.7,4217z"/>
	<path fill="#010202" d="M1930.8,4217c-0.7-1.7-1-53.5-0.7-114.9l0.7-111.7h23.3h23.3v114.2v114.2l-22.8,0.7
		C1937.9,4219.9,1931.5,4219.2,1930.8,4217z"/>
	<path fill="#010202" d="M1986.1,4104.5v-115.4h51.6h51.6v22.1v22.1H2061h-28.2v93.3v93.3h-23.3h-23.3V4104.5z"/>
	<path fill="#010202" d="M2074.5,4146.2l36.8-73.7v-41.7v-41.7h22.1h22.1v41v41l36.8,72.9c20.4,40.3,36.8,73.7,36.8,74.4
		s-11.3,1.5-25.3,1.5h-25.3l-21.9-45.7l-21.9-45.7l-22.8,45.7l-22.8,45.7h-25.8h-25.8L2074.5,4146.2z"/>
	<path fill="#010202" d="M2705.6,4104.5v-115.4h22.1h22.1l0.5,53.5l0.7,53.3l23.6-52.8l23.6-52.8l22.1-0.7l22.1-0.7l24.3,53.3
		l24.3,53.5l0.7-53.5l0.5-53.3l22.8,0.7l22.6,0.7v114.2v114.2l-24.8,0.7l-24.8,0.7l-32.9-73.9c-17.9-40.5-33.4-73.7-34.1-73.7
		c-1,0-16.2,32.9-33.9,73.2l-32.2,72.9l-24.6,0.7l-24.8,0.7V4104.5z"/>
	<path fill="#010202" d="M2948.7,4104.7v-115.7h23.3h23.3v39v39l22.8,1c26.3,1,40,6.4,55.3,21.9c15.5,15.5,21.1,29.5,21.4,52.6
		c0,16.7-1,21.9-6.9,33.6c-3.9,7.9-11.8,18.4-17.9,23.8c-17.7,15.5-27.8,18.2-77.6,19.4l-43.7,1V4104.7z M3033.7,4169.3
		c10.3-4.9,15.7-14.5,15.7-28.2c0-8.1-1.5-11.5-8.3-18.4c-8.1-8.1-9.1-8.3-27-8.3h-18.7v29.5v29.5h15
		C3019.2,4173.3,3028.8,4171.5,3033.7,4169.3z"/>
	<path fill="#010202" d="M2328.1,4212.3c-33.6-10.6-63.4-39.5-74.7-72.7c-7.6-22.3-7.6-54.3,0-75.4c11.3-31.4,30.5-52.6,61.6-67.5
		c16.7-7.9,20.9-8.8,43-9.6c28-1,47.2,3.7,68.3,17.2c12.5,8.1,31.9,28.2,37.6,39.3l3.7,6.9h-28.2c-16.5,0-28.7-1-29.7-2.5
		c-1-1.5-7.4-5.4-14.2-9.1c-17.2-8.8-44.2-9.3-59.9-1.2c-26.5,13.8-40.8,36.1-40.8,63.9c0,56,59.4,88.9,107.1,59.4
		c11.3-7.1,13.3-7.4,38.8-7.4h27l-4.4,7.9c-7.1,12.8-30.7,35.1-44,42C2390,4218.2,2356.9,4221.4,2328.1,4212.3z"/>
	<path fill="#010202" d="M2543,4212.8c-20.1-6.4-33.2-15-48.9-31.4c-22.1-23.3-31.7-46.9-31.7-79.6c0-80.5,78.1-136.3,154.5-110
		c52.6,18.2,86,73.9,76.9,127.9c-7.6,44-36.8,78.6-78.6,92.6C2595.8,4218.9,2563.2,4219.2,2543,4212.8z M2609.1,4166.1
		c26.5-13.5,40.8-35.9,40.8-64.1c0-61.9-72.2-94.1-118.4-52.6c-41.7,37.6-26,103.4,29.2,121.6
		C2571.5,4174.7,2598,4172,2609.1,4166.1z"/>
	<path fill="#010202" d="M3105.9,4129.5v-88.2l7.4-15c8.6-16.7,20.1-28.2,36.6-35.9c16-7.1,46.2-7.1,62.1,0.2
		c16.5,7.6,32.2,24.3,38.6,41c4.9,13.3,5.2,18.2,5.2,99.7v86h-23.3H3209v-85v-85l-8.3-8.3c-7.1-7.1-10.1-8.3-19.9-8.3
		c-9.8,0-12.8,1.2-19.9,8.3l-8.3,8.3v85v85h-23.3h-23.3V4129.5z"/>
	<path fill="#010202" d="M3260.6,4194.1v-23.3h18.4h18.4v-92.1v-92.1h22.1h22.1v92.1v92.1h19.6h19.6v23.3v23.3h-60.2h-60.2V4194.1z"
		/>
	<path fill="#010202" d="M3388.3,4102v-115.4h60.2h60.2v22.1v21.9l-37.3,0.7l-37.6,0.7l-0.7,21.6l-0.7,21.4h38.3h38.1v23.3v23.3
		h-38.1h-38.3l0.7,25.3l0.7,25l37.6,0.7l37.3,0.7v21.9v22.1h-60.2h-60.2V4102z"/>
	<path fill="#010202" d="M3516,4102v-115.4h23.3h23.3l0.5,58.4l0.7,58.2l34.1-58.2l33.9-58.4h24.3c13.5,0,24.3,0.5,24.3,1
		s-10.6,18.9-23.3,40.5c-12.8,21.9-23.3,40.5-23.1,41.5c0,1,5.2,5.2,11.5,9.1c15.2,9.8,26.8,26.5,31.7,46.4c3.7,15,3.7,17.4,0,32.4
		c-4.9,19.2-14,33.4-28.2,44.4c-17.4,13.3-29.5,15.5-84.5,15.5H3516V4102z M3624.3,4161.7c8.1-9.1,10.8-17.7,8.6-26.5
		c-1-3.4-4.7-9.8-8.6-14.2c-7.1-7.9-7.1-7.9-34.4-8.6l-27.3-1v30v30l27.3-1C3617.2,4169.6,3617.2,4169.6,3624.3,4161.7z"/>
	<path fill="#010202" d="M1413.9,3533.5v-342.6l159.1,0.5l159.1,0.7l18.7,9.1c23.1,11.5,45.7,34.6,57,58.2l7.6,16.2l0.7,248
		c0.5,171.7-0.2,252-2,260.8c-6.4,30.2-32.2,63.4-60.9,77.8c-26.3,13.3-30.9,13.8-191.3,13.8h-148.1V3533.5z M1740,3835.3
		c20.9-10.3,36.1-32.2,42-59.9c2.2-10.1,2.7-75.1,2.2-251.7l-0.7-238.2l-6.9-13.8c-11.3-23.1-31.7-39-60.9-47.4
		c-11.8-3.4-30-3.9-141-3.4l-127.7,0.7l-0.7,310.2l-0.5,309.9h140.7h140.7L1740,3835.3z"/>
	<path fill="#010202" d="M1561.9,3599.6c1-75.1,1.7-166,1.7-201.6v-65.1l33.9,1c30.7,0.7,34.4,1.2,41.7,6.4
		c4.4,3.2,10.3,10.3,13.5,16l5.4,10.3v167v167l-6.9,11.5c-12,20.4-17.4,22.6-56.7,23.6l-34.1,1L1561.9,3599.6z M1620.4,3697.1
		l7.1-7.1v-156.4v-156.4l-7.4-7.1c-5.9-6.1-9.1-7.4-16.5-6.6l-9.3,0.7l-0.7,170.2l-0.5,169.9h10.1
		C1611.1,3704.2,1614.7,3702.7,1620.4,3697.1z"/>
	<path fill="#010202" d="M2176.9,3873.7c-45.2-8.1-74.2-30.7-86-67.5c-5.2-16.5-5.4-20.6-5.4-111.7c0-106.8,0.2-109.3,18.7-137.5
		c19.2-29.7,31.7-39.5,116.6-90.6l79.1-47.2l1-28.7c0.7-15.7,0.2-30.7-1-32.9c-4.7-9.3-24.1-8.6-29.5,1.2
		c-1.7,2.9-3.7,16.2-4.4,29.7l-1.2,24.3l-87.2,53l-87.2,53.3l-0.7-116.4c-0.5-128.4-0.2-132.4,14.7-160.9
		c9.6-17.9,34.4-41.3,50.1-47.4c11.1-4.2,22.1-4.7,125.2-5.4c110.3-0.7,113.9-0.5,128.9,4.4c37.3,12.5,63.1,35.9,74.7,67.5
		c3.9,10.8,4.7,22.3,5.6,93.8c1,90.1-0.5,106.1-11.3,129.2c-10.1,21.4-24.1,36.1-51.6,54c-13,8.3-54.5,35.4-91.8,59.4l-68.3,44.2v26
		c0,29.2,1.5,32.7,15.2,35.1c7.4,1.2,10.1,0.7,14.2-3.4s4.9-8.1,4.9-26.5v-21.9l94.1-61.9l93.8-61.6l0.7,123.3
		c0.5,132.1,0.2,136.5-12.3,163.3c-7.1,15.2-29.7,37.8-46.7,45.7c-28.7,14.2-34.1,14.7-141.9,15.5
		C2233.4,3875.4,2183.3,3874.9,2176.9,3873.7z M2406,3832.9c9.1-4.2,20.9-12.5,27.5-19.2c20.4-20.9,19.9-17.9,22.1-120.6
		c1.2-49.9,1.7-92.8,1.5-95c-0.5-3.2-15.2,4.7-63.9,33.9l-63.4,38.1v16c0,19.6-6.1,32.9-19.2,41.3c-19.9,13.3-45.2,10.3-63.4-7.1
		l-10.8-10.3v-44.2v-44.4l89.1-57.5c67-43.2,92.8-61.1,105.1-73.4c25.3-25,24.8-22.3,23.8-126.2c-1-99.9-0.5-97.7-20.6-119.4
		c-19.6-20.9-17.9-20.6-143.4-20.6c-99.5,0-110.5,0.5-122.1,4.4c-17.2,6.1-35.4,22.8-42.7,39c-7.1,16.5-8.3,44.4-5.9,131.1l1.7,61.6
		l57-33.9l56.7-33.9l1.2-21.6c1.5-23.8,3.2-28.5,15.7-39.5c22.3-19.4,60.9-14.5,77.1,10.1c6.6,9.8,6.6,10.6,6.6,51.8v41.7
		l-84.7,54.5c-91.6,58.7-111.2,74.7-123.5,99.2l-6.6,13.3v90.4c0,84,0.2,91.1,4.9,103.1c6.9,18.9,27.3,37.8,46.4,44
		c3.4,1,54,1.7,112,1.5l105.6-0.5L2406,3832.9z"/>
	<path fill="#010202" d="M2519,3533.5v-342.6h92.1h92.1v107.3v107.3l12.3-12l12.3-12v-95.3v-95.3h90.9h90.9v129.7l-0.2,129.4
		l-35.1,43l-35.4,42.7l18.2,21.1c9.8,11.5,25.8,29.7,35.1,40.5l17.4,19.6v129.7v129.4h-90.9h-90.9v-93.6v-93.3l-11.5-13.5
		l-11.8-13.5l-1.2,106.3l-1.2,106.3l-91.4,0.7l-91.6,0.5V3533.5z M2667,3811.8c1-15.2,1.7-58.7,2-96.5c0.2-37.8,1-84.2,2-102.9
		l1.5-34.4l44.2,45.9l44.2,45.9l1.7,20.4c0.7,11.1,1.5,48.6,1.7,83.5l0.2,63.1h56.5h56.5v-104.4v-104.6l-39.3-45.4
		c-21.6-24.8-39.3-45.9-39.3-46.7c0-0.7,17.2-21.1,38.1-45.2l38.1-44v-108.3v-108.1h-60.2h-60.2l-0.2,85.5l-0.2,85.2l-44,41.5
		l-44,41.3V3357v-126.7h-56.5h-56.5v304.5v304.5h56h56.2L2667,3811.8z"/>
	<path fill="#010202" d="M3315.4,3873.7c-30.2-5.4-52.6-17.9-69.3-39.3c-17.9-22.6-18.4-25.8-19.4-133.8
		c-1-110.5-0.5-114.7,19.2-144.4c18.9-29,33.6-40.5,118.6-91.4l77.8-46.7v-30c0-28.2-0.2-30.2-5.4-33.6c-7.6-5.4-14.7-4.9-22.6,1.2
		c-6.1,4.9-6.4,5.9-6.4,30.2v25.3l-88.9,54.3l-89.1,54.3l-0.7-112.2c-0.7-123.8,0-132.1,14.2-162.1c7.9-16.7,28-38.8,42-45.9
		c19.6-10.3,28.5-11.1,141.2-11.1c99.5,0,109.3,0.5,121.6,4.7c44.4,15.2,70.5,41.5,78.6,78.6c1.5,7.4,2.2,45.9,1.7,102.4l-0.7,90.6
		l-7.9,16.7c-11.8,24.6-30,42.2-70.5,67.8c-19.2,12.3-58.9,38.1-88.7,57.2l-54,35.4l-0.7,24.1c-0.7,28,1.7,34.4,15,36.8
		c16.7,3.2,19.4-0.7,21.4-31.4l1.2-21.9l92.1-60.7l92.1-60.7l0.7,125.5c0.5,85-0.2,128.9-2,136.3c-9.8,39.3-41,69.3-83.7,80.3
		c-13,3.4-32.2,4.2-115.2,4.9C3372.8,3875.4,3322.5,3874.9,3315.4,3873.7z M3543.5,3834.9c17.7-7.1,39-26.3,46.7-41.7
		c5.6-11.3,5.6-13,6.4-104.1c0.5-51.1,0.2-92.8-0.7-92.8s-29.7,16.7-63.9,37.3l-62.1,37.3l-1,19.6c-0.5,15.2-2,21.4-5.6,26.5
		c-14.2,18.9-44.9,23.8-66.8,10.3c-18.7-11.3-20.4-17.2-20.4-64.8v-40.5l87.7-56.5c90.1-58,113.2-75.9,125.5-96.8l6.6-11.3v-87.2
		c0-77.6-0.5-88.7-4.4-99.9c-5.6-16-20.6-33.2-35.6-40.5l-11.5-5.6h-111.7c-127.5,0-126-0.2-148.1,20.6
		c-23.1,21.6-22.6,17.9-23.3,122.5c-0.5,73.4,0,91.4,2.5,91.4c1.7-0.2,27.5-14.7,57.2-32.7l54-32.7l1.2-21.1
		c1.2-18.7,2.2-22.6,8.6-31.7c17.7-25,53-28.5,77.6-7.9c13.8,11.8,15.5,17.9,16.5,61.1l1,39.5l-86.9,55.7
		c-91.6,59.2-110.8,74.4-124,98.2l-6.9,12.5v93.3v93.3l6.9,14c8.3,16.9,25.3,32.7,40.8,37.6c9.1,2.7,30.9,3.4,115.7,2.9
		C3528,3840.5,3529.8,3840.5,3543.5,3834.9z"/>
	<path fill="#010202" d="M4195,3873.7c-39.8-7.1-70-29.2-82.8-60.9c-5.6-13.8-5.6-15-5.6-118.4V3590l7.6-16
		c9.1-19.2,26.5-42,41.3-54c5.9-4.9,45.4-29.7,88.4-55.3l77.6-46.7v-30c0-28.2-0.2-30.2-5.4-33.6c-7.6-5.4-14.7-4.9-22.6,1.2
		c-6.1,4.9-6.4,5.9-6.4,30.2v25l-88.9,54.3l-89.1,54.3l-0.7-114.4c-0.5-96.5,0-116.6,3.2-129.2c9.6-37.3,29.5-64.6,57.2-78.1
		l16.5-8.1l113.7-0.7c100.9-0.7,115.4-0.2,126.7,3.4c43.5,14,72,42.2,79.8,79.1c1.7,8.1,2.7,44.2,2.7,97.2
		c0,77.1-0.5,85.7-4.9,100.2c-9.3,30.5-29,51.8-70.5,77.6c-13.3,8.1-51.6,32.9-85.5,55l-61.4,40l-0.7,24.3
		c-0.7,28.5,1.7,34.4,15.7,37.1c7.4,1.2,10.1,0.7,14.2-3.4c4.2-4.4,5.4-9.3,6.4-27.8l1.2-22.6l92.1-60.7l92.1-60.7l0.7,125.5
		c0.5,135.8,0.5,137.3-13,163.8c-7.1,14-28.5,34.4-44.9,42.7c-26.5,13.5-35.1,14.2-142.9,15.2
		C4252,3875.4,4201.9,3874.9,4195,3873.7z M4412.6,3837.8c25.5-7.4,47.2-25.5,57-47.4c4.4-10.1,4.9-18.2,6.1-102.7
		c0.7-50.3,0.5-91.6-0.5-91.6s-30,16.9-64.3,37.3l-62.4,37.6v16.7c0,18.9-3.4,27.5-14.7,37.1c-20.1,16.7-56.2,12.3-72.2-9.1
		c-4.7-6.4-5.2-10.8-5.9-50.3l-0.7-43.5l87.7-56.5c89.4-57.5,113.5-75.9,125.2-96l6.1-10.3l-0.7-93.1c-0.7-90.9-0.7-93.1-6.4-103.1
		c-8.1-15.5-18.9-26.8-31.9-33.2l-11.5-5.6h-113h-113l-14,6.6c-18.2,8.3-34.9,26-40.5,42.2c-3.7,11.1-4.2,22.6-3.4,99.7
		c0.2,47.9,0.7,87.4,1,87.4c0.2,0.2,26-14.7,57-33.2l56.5-33.6l1.2-20.6c1.7-23.6,5.9-33.6,17.7-42.5c21.4-16,50.3-14.2,70.2,4.2
		c11.5,10.3,12.8,15.7,12.8,59.7v41.3l-84.2,54c-89.1,57.2-110.5,73.9-123.5,97.7l-7.1,12.8l-0.7,89.9c-0.7,87.7-0.5,90.1,4.7,104.4
		c7.4,19.9,23.8,36.8,41.5,42.7c12.3,4.4,21.9,4.7,113.2,4.9C4383.6,3841.7,4401.3,3841.2,4412.6,3837.8z"/>
	<path fill="#010202" d="M4537.6,3783.5v-91.6h40.5h40.5v-250.5v-250.5h98.2h98.2v250.5v250.5l42.5,0.5l42.2,0.7l0.7,88.7l0.5,88.9
		l-125.7,1.5c-69.3,0.7-151,1.7-182,2.2l-55.7,0.5V3783.5z M4861.8,3782.8v-54h-43h-43V3477v-251.7h-60.2h-60.2v252.9v252.9l-41,0.5
		l-41.3,0.7l-0.7,49.1c-0.2,27,0,50.3,0.5,52.1c1,2.5,30.7,3.2,145.1,3.2h143.7V3782.8z"/>
	<path fill="#010202" d="M4930.5,3532.3v-343.8H5059c70.5,0,142.2-0.7,159.6-1.7l31.2-1.5v87.4v87.7h-65.1h-65.1v38.1v38.1h65.1
		h65.1v89.6v89.6h-62.6h-62.6v39.3v39.3h65.1h65.1l-0.5,90.4l-0.7,90.1l-161.3,0.7l-161.6,0.5V3532.3z M5215.4,3782.8v-51.6h-65.1
		h-65.1v-76.1V3579h66.3h66.3v-52.8v-52.8h-67.5h-67.5l0.5-74.2l0.7-74.4l65.8-0.7l65.6-0.5v-54v-54h-124h-124v309.4v309.4h124h124
		V3782.8z"/>
	<path fill="#010202" d="M1860.8,3532.3v-341.4h94.5h94.5v341.4v341.4h-94.5h-94.5V3532.3z M2018,3532.3v-302.1h-62.6h-62.6v302.1
		v302.1h62.6h62.6V3532.3z"/>
	<path fill="#010202" d="M3663.3,3672.8c0-172.4,0.5-202.8,3.7-215.4c8.1-30.9,26-52.6,52.6-63.1c13-5.2,17.9-5.4,86.9-6.4l72.9-1
		v-15.7v-15.7h-92.1h-92.1V3272v-83.7l149.3,0.7l149.1,0.7l13.8,5.6c19.2,8.1,36.1,21.6,46.9,37.3c17.4,25.8,16.7,9.1,16.7,341.8
		v299.1h-93.3h-93.3l-0.5-156.4l-0.7-156.7h-16h-16l-0.7,156.7l-0.5,156.4h-93.3h-93.3V3672.8z M3815.6,3704.5
		c0-76.9,1-137.5,2.5-144.9c4.9-26.3,17.9-35.9,47.9-35.9c24.6,0.2,37.6,6.6,47.4,23.3l6.6,11.1l0.7,139.5l0.7,139.2h58.7h58.9
		l-0.5-282.9c-0.7-270.6-1-283.6-5.4-291.7c-6.4-12-18.2-24.1-29.7-30.2c-9.6-5.4-11.8-5.4-141.7-6.1l-132.1-0.7v47.9v47.6l75.6,1
		c71.5,0.7,75.9,1,85.2,6.1c11.8,6.4,22.1,16.7,25.5,26c1.5,3.9,2.7,19.4,2.7,34.9v28l-82.8,0.7c-73.7,0.7-84.2,1.2-92.8,5.2
		c-13,5.9-24.8,17.4-32.7,32.4l-6.6,12.3l-0.7,184.9l-0.5,184.7h56.5h56.5V3704.5z"/>
	<path fill="#010202" d="M5296.4,3532.3v-341.4h89.6h89.6v246.3c0.2,197.9,0.7,246.8,3.4,250.2c7.4,9.8,20.1,9.8,27.8-0.2
		c2.5-2.9,2.9-60.7,3.2-251.2v-247.5h92.1h92.1v245.3c0,244.3,0,245.1,5.2,251.7c3.7,4.7,7.4,6.4,13.3,6.4c16.9,0,16,16.5,16-258.3
		V3186h93.3h93.3l-0.5,305.3l-0.7,305l-5.6,14c-6.6,16.7-23.8,36.3-39,45.4c-23.8,14-36.1,15.5-122.3,15.5
		c-74.2,0-79.8-0.2-94.5-5.2c-10.8-3.9-18.9-8.6-27.3-16.7l-11.5-11.3l-10.8,9.6c-5.9,5.2-17.7,13-26.5,17.2l-16,7.6l-131.9,0.7
		l-132.1,0.7V3532.3z M5555.5,3833.4c16.2-7.4,37.3-27.8,44-42.7c5.4-11.8,7.6-12.8,9.8-4.4c2.2,9.3,25.5,32.9,39.3,40.3l12.5,6.6
		h88.4c86.2,0,88.7-0.2,98.5-5.4c5.4-2.9,13.5-9.3,17.7-14c15.7-18.2,15.2-5.9,15.2-311.4v-277h-60.2h-60.2l-0.5,238
		c-0.7,236.2-0.7,238.2-5.9,244.8c-9.1,12.5-17.2,16.7-33.6,17.7c-8.3,0.5-20.1-0.2-26.3-2c-13.8-3.7-28-17.7-31.7-30.7
		c-2-6.9-2.7-79.3-2.7-238.7v-229.1h-57.7h-57.7v231.8c0,166.5-0.7,234-2.7,239.9c-3.9,11.5-13.3,23.6-21.9,28
		c-4.2,2.2-13.8,3.7-23.6,3.7c-27.3,0-43.7-11.1-49.9-33.4c-1.7-6.6-2.7-81.5-2.7-239.7v-230.4h-54h-54v307v307l83,0.7
		C5535.6,3841.2,5538.8,3841,5555.5,3833.4z"/>
</g>
</svg>
