<?xml version="1.0" encoding="utf-8"?>
<!-- Generator: Adobe Illustrator 18.1.1, SVG Export Plug-In . SVG Version: 6.00 Build 0)  -->
<svg version="1.1" id="Lager_1" xmlns="http://www.w3.org/2000/svg" xmlns:xlink="http://www.w3.org/1999/xlink" x="0px" y="0px"
	 viewBox="238 0 357.3 113.4" enable-background="new 238 0 357.3 113.4" xml:space="preserve">
<path fill="#00005F" d="M287.2,2.9c1.4-1.4,4.1-1.5,5.4,0.2c2.4,1.9,0.1,6.1-2.7,5.9c-1.8-0.2-3-1.6-3.8-3.1
	C286.3,4.9,286.4,3.8,287.2,2.9z"/>
<path fill="#C1BFBE" d="M281.8,8.9c0.5-1.8,2.5-2.6,4.2-2.9c0.8,1.5,2,2.8,3.8,3.1c1,5.4,0.3,11,0.1,16.4c2.9,0.4,5.9,0.6,8.7,1.6
	c-3.1-0.4-6.2-0.8-9.3-1.1c0.6-5,0.5-10.1,0.3-15.3c-1.2-0.4-2.5-0.6-3.6,0.1c-2.8,1.6-5.3,3.7-8.2,5.2c-8.6,4.7-17,10-25.8,14.5
	c3.8-3,8.2-5,12.3-7.5c5-2.7,9.8-5.8,14.9-8.4c1.2-0.6,2.3-1.4,3.4-2.2C282.2,11.3,282,10.1,281.8,8.9z"/>
<path fill="#C1BFBE" d="M290.9,10.3c1.1-0.7,2.2-1.9,3.5-1.8c7.7,2.2,15.8,3.6,22.5,8.3c3.6,2.6,7.2,5.7,8.3,10.1
	c1.1,3.8-1.6,7.2-1.6,10.9c-0.6,1.1-1.4,2.1-2.3,3.1c0.1-4,1.9-8,0.5-11.9c-2-5.3-6.7-8.8-11.4-11.5c-3.1-1.5-6.2-2.8-9.5-3.7
	c-2.7-0.8-5.4-1.1-8.1-1.9C291.9,11.8,291.5,11,290.9,10.3z"/>
<path d="M411.1,31.2c7.4-9.8,19.7-15.4,31.9-15.4c4.6,0.6,9.3,1.2,13.6,3.1c8.5,3.3,15.5,10,19.9,17.9c0.2,0.5,0.5,1,0.6,1.6
	c-2.6,0.1-5.2,0.1-7.8,0c-3.7-5.6-8.8-10.3-15-12.8c-8.7-3.9-19.2-3.2-27.4,1.4c-5.3,2.9-10,7.3-12.9,12.7c-4.8,8.4-5.5,19-1.8,28
	c5,13.2,19.5,22.3,33.6,20.3c10.8-1.1,20.4-8.4,25.1-18.1c2.6-0.1,5.2-0.1,7.7,0c-3.6,9-10.3,16.7-18.9,21.1
	c-5.2,2.8-10.9,3.9-16.7,4.4c-6.9-0.2-13.9-1.5-20-5.1c-10.1-5.8-17.8-16.2-19.7-27.8C401.3,51.7,404.1,39.8,411.1,31.2z"/>
<path d="M491.6,18c12.6,0,25.3,0,37.9,0.1c0.1,4.9,0,9.8,0,14.7c-7.8-0.1-15.5,0-23.3-0.1c-0.2,4.8-0.1,9.5-0.1,14.3
	c7.4,0.1,14.8,0,22.2,0.1c0,5,0.1,10-0.1,15c-7.4,0-14.8,0-22.2-0.1c-0.1,10.7-0.1,21.4-0.1,32c-4.8,0-9.6,0-14.5,0
	C491.6,68.7,491.6,43.3,491.6,18z"/>
<path d="M530.8,18c5.7,0.1,11.3-0.2,17,0.1c3.9,7,7.9,14.1,12.1,21c4.8-6.7,8.2-14.4,12.9-21.2c5.7,0.2,11.3,0.1,17,0.1
	c-5.2,8.7-10,17.5-15.4,26.1c-1.9,3.5-4.1,6.7-5.8,10.3c7.7,13.2,15.5,26.5,22.7,39.9c-5.4-0.1-10.8,0-16.3-0.1
	c-1-0.1-1.4-1-1.8-1.7c-2.9-5.3-6-10.6-9-15.9c-1.4-2.2-2.4-4.6-4.1-6.7c-0.2,0-0.6-0.1-0.7-0.1c-4.7,8-9.2,16.1-14,24.1
	c-5.7,0.2-11.5-0.4-17.1,0.4c3.6-7,8-13.7,11.7-20.6c3.6-6.2,7.3-12.4,10.8-18.7c0.4-0.6,0.5-1.3,0-1.9c-5.5-9.6-11-19.2-16.6-28.8
	C533.1,22.4,531.6,20.3,530.8,18z"/>
<g>
	<g>
		<path d="M398.5,37.9c-2.1-8-7.9-14.9-15.5-18.1c-2.9-1.1-6.1-1.7-9.2-2.2c-6.9-0.1-13.9-0.1-20.8,0c0.1,17.5,0.2,34.9,0.1,52.2
			c0.2,8.1-0.1,16.1,0.2,24.1c2.2,0.1,4.5,0.1,6.7,0c-0.1-4.8,0-9.6-0.1-14.4c0-2.4-0.2-4.8,0.3-7.1c4.3,0.1,8.6,0.1,12.9,0.1
			c3.2,0.1,6.2-0.9,9.2-1.9C395,65.8,402.4,50.7,398.5,37.9z M392.3,45.4c0.2,9.8-8,19.1-17.9,19.7c-4.6,1-9.2-0.5-13.8,0.4
			c-0.3-0.9-0.7-1.6-0.6-2.6c-0.1-9.2-0.1-18.5-0.1-27.7c0-3.5-0.2-7,0.1-10.5c3.5-0.3,6.9,0,10.4-0.1c4.9-0.1,10,1,13.9,4.1
			C389.5,32.5,392.6,38.9,392.3,45.4z"/>
	</g>
</g>
<path fill="#C1BFBE" d="M248.2,32c1-0.8,2.2-0.9,3.3-1.1c-1.4,0.9-3,1.8-4,3.2c-0.6,1.3-0.7,2.8-0.9,4.2c-0.2,5.5,0.2,11-0.2,16.5
	c-0.1,1.9,0.1,3.9,0.3,5.8c0.2,3.3-0.3,6.5,0.1,9.8c0.3,3.7-0.5,7.5-0.1,11.3c0,1.1,1.2,1.5,2,2.1c5.3,3,10.6,5.8,15.8,9.1
	c-0.1,0.5-0.1,1.1,0.5,1.3c4.9,3.5,10.5,6.1,15.8,9.2c2.6,1.5,4.9,4.4,8.2,3.7c0.3,0,1-0.1,1.2-0.1c-0.1,2-2.4,2.7-3.9,3.6
	c-1,0.7-2.1-0.1-3.1-0.6c-11.2-6.4-22.2-13-33.5-19.3c-2.3-1.3-4.6-2.4-6.7-4.1c-0.2-15,0.1-30.1-0.1-45.2c0-1,0-2.1,0.2-3.1
	c0.8-1,1.9-1.8,2.6-2.9C246.6,34.3,247.1,32.9,248.2,32z"/>
<path fill="#FFD100" d="M280,31.1c3.4-0.2,6.8-1,10.1-0.2v0.6c0,1.1,0,2.3-0.1,3.3c0,2.6-0.2,5.2-0.5,7.8C282,42.7,274,44,268.2,49
	c-2.4-1.6-5-4-4.9-7.2c0-1.4-0.1-2.9,1-4C268.5,33.8,274.5,32.4,280,31.1z"/>
<path fill="#C1BFBE" d="M290.2,31.6c4,0.9,8.2,1.1,12.1,2.6c4.7,1.8,9.7,4.3,12.1,9c1.2,1.6-0.9,3.9-2.6,3.4c-1.9-1.9-3.3-4.4-5.6-6
	c-4.6-3.3-10.4-4.7-16-5.6C290.2,33.9,290.2,32.8,290.2,31.6z"/>
<path d="M472.8,46.8c3.9,0.1,7.7-0.1,11.6,0.1c0.5,4.9-0.2,9.8-0.3,14.7c-3.5-0.1-7-0.1-10.5-0.1C474.2,56.6,474.4,51.5,472.8,46.8z
	"/>
<path fill="#FFD100" d="M273.1,51.3c4.9-2.8,10.7-4.1,16.4-3.8c0.3,1.4,0.6,2.9,0.7,4.3c-0.1,0.5-0.2,1.4-0.2,1.9
	c-0.2,0-0.7,0-1,0.1c-3.6,0.2-7.1-0.3-10.6-0.7c0.2-0.2,0.3-0.3,0.5-0.5C276.9,52.7,275,52,273.1,51.3z"/>
<path fill="#C1BFBE" d="M289.5,47.5c3.7-0.1,7.3,0.7,10.8,1.9c1.4,0.6,3.2,1,4,2.6c-5,0.8-10,2.5-15.2,1.8c0.3,0,0.7,0,1-0.1
	c1.5,0,2.9-0.3,4.3-1c-1.3-0.3-2.7-0.6-4-0.9C290.2,50.3,289.8,48.9,289.5,47.5z"/>
<path fill="#00005F" d="M324.1,14.7c-7.3-6.3-16.8-9.4-26.2-10.8c-1.5-0.2-2.2,1.3-2.7,2.4c0.7,1.1,1.5,2.2,3,2.4
	c5.9,0.7,11.7,2.4,17,5.3c4.8,2.6,9.6,6.3,11.2,11.7c0.8,4.2-0.8,8.6-2.9,12.2c-0.7,1.2-1.4,2.1-2.3,3.1c-0.1,0.2-0.4,0.5-0.6,0.7
	c-1.4-2.1-2.4-4.4-4.3-6.1c-4.8-4.5-11.2-7-17.7-8.4c-3.1-0.4-6.2-0.8-9.3-1.1c-3-0.3-6,0-9,0.5c-5.8,1-11.6,2.5-16.3,6
	c-2.8,2.1-5.6,5.2-5.2,9c-0.2,4.4,2.4,8.3,5.8,10.7c2.1,1.2,1.6,3.8,2.3,5.7c0.6,2.3,2.5,3.9,4.1,5.5c1.2,1,1,2.7,1.3,4.1
	c1.1,2.1,2.9,3.7,5,4.8c5,2.8,10.8,2.7,16.4,2.5c-0.1,1.1-0.1,2.2-0.1,3.3c0.5,0.4,1,0.8,1.5,1.2c1.1-0.3,2.3-0.6,3.4-0.9
	c2.4-1.3,4.7-2.8,6.5-4.9c1.6-1.9,2-4.6,4-6.2c2.2-2,3-4.9,4.4-7.5c2.8-3,5.7-6.2,6.8-10.3c0.3-1.8,2-2.8,3.2-4.1
	c4.4-4.5,7.8-10.5,7.7-17C331.1,23.1,328.1,18.1,324.1,14.7z M290.1,53.7c0.1-0.5,0.2-1.4,0.2-1.9c1.4,0.3,2.7,0.6,4,0.9
	C293,53.4,291.5,53.7,290.1,53.7z M309.6,49.7c-1.9-1.2-3.6-2.6-5.7-3.6c-4.5-2.1-9.4-2.8-14.3-3.3c0.3-2.6,0.5-5.2,0.5-7.8
	c5.6,0.9,11.3,2.2,16,5.6c2.3,1.6,3.7,4,5.6,6c1.7,0.4,3.8-1.8,2.6-3.4c-2.4-4.6-7.4-7.1-12.1-9c-3.9-1.5-8.1-1.8-12.1-2.6V31
	c4.1-0.3,8.1,0.6,12,1.7c4.9,1.5,9.8,4,12.7,8.3c1,1.3,1.3,2.8,1.5,4.4C314.1,46.9,311.8,48.3,309.6,49.7z"/>
<path d="M270.8,55.3c1.9,0.1,3.9,0.5,5.4,1.8c-1.7-0.5-3.5-1-5.2-1.2c0.5,1.3,1.1,2.7,2.3,3.5c1.4,0.3,2.6-0.8,3.9-1.3l0.4-0.2
	c-1.1,0.9-2.2,2.6-3.9,2.2C271.8,59.3,270.7,57.2,270.8,55.3z"/>
<path fill="#FFD100" d="M271,55.8c1.8,0.3,3.5,0.7,5.2,1.2c0.2,0.2,0.7,0.7,1,1c-1.2,0.5-2.4,1.6-3.9,1.3
	C272.2,58.4,271.5,57.1,271,55.8z"/>
<path fill="#C1BFBE" d="M300.7,57.2c2.6-0.6,5.1-1.2,7.6-1.9c0.1,0.5,0.2,1.5,0.3,2c-0.9,1.5-2.8,1.9-4.3,2.7
	C303,59.2,301.6,58.6,300.7,57.2z"/>
<path fill="#C1BFBE" d="M279.1,61.7c3.1-1.1,6.4-2,9.8-1.9c3.3,0,6.4,1,9.6,1.5c-0.1,0.3-0.2,0.7-0.2,1
	C291.9,63.4,285.2,64,279.1,61.7z"/>
<path fill="#00005F" d="M246.9,60.7c6.5,3.3,12.7,7.1,19.1,10.7c3.5,2,6.9,4.2,10.6,5.9c4.1,2.6,8.3,5,12.4,7.4
	c0.9,0.7,1.8-0.2,2.5-0.7c-2.6,1.6-1.6,4.9-1.8,7.5c0.2,4.7-0.4,9.4,0.3,14.1c0.4,0.1,1.1,0.3,1.5,0.5c-0.5,0.3-0.9,0.6-1.4,1
	c-0.3,0.1-1,0.1-1.2,0.1c-8-4.9-16.3-9.3-24.4-14.1c-5.1-3.2-10.5-6.1-15.8-9.1c-0.8-0.6-1.9-1-2-2.1c-0.4-3.7,0.5-7.5,0.1-11.3
	C246.6,67.2,247.1,63.9,246.9,60.7z"/>
<path fill="#FF0020" d="M301.4,78.3c10.1-6.1,20.5-11.8,30.8-17.7c0.2,7.3,0.2,14.6,0.1,21.9c-1.7,0.9-3.3,1.9-5,2.9
	c-7.5,4-14.7,8.6-22.2,12.6c-4.5,2.7-9.1,5.1-13.5,7.9c-0.4-0.1-1.1-0.3-1.5-0.5c-0.8-4.6-0.1-9.4-0.3-14.1c0.2-2.6-0.8-5.8,1.8-7.5
	C294.4,81.5,298.1,80.2,301.4,78.3z"/>
<path fill="#C1BFBE" d="M293.4,67.8c3.3-0.2,6.3-1.4,9.5-1.9c-0.5,0.6-0.9,1.2-1.6,1.6c-5.3,2.8-11.6,3.3-17.4,2.3
	c-2.6-0.6-5.2-1.4-7-3.3c1.1,0,2.1,0.2,3.1,0.5C284.3,68,288.9,68,293.4,67.8z"/>
<path fill="#C1BFBE" d="M272.3,67.5c1.1,2.1,2.9,3.7,5,4.8c5,2.8,10.9,2.7,16.4,2.5c0,1.1-0.1,2.2-0.1,3.3c0.5,0.4,1,0.8,1.5,1.2
	c1.1-0.3,2.3-0.5,3.4-0.9c-2.3,1.5-4.6,3.1-7.1,4.2c-0.7,0.4-1.5,0-2.2-0.3c0.2-1.3,0.6-2.6,1-3.9c-1.9,0.2-3.7,0.3-5.6,0.3
	c-2.8,0.1-5.2-1.6-8-1.6c-3.7-1.7-7.1-3.9-10.6-5.9C268.5,70.8,270.9,69.7,272.3,67.5z"/>
<path fill="#C1BFBE" d="M305,98.1c7.5-4,14.7-8.6,22.2-12.6c-0.5,2.8-3.7,3.3-5.7,4.6c-2.8,1.3-5.4,3.1-8.2,4.6
	c-6,3-11.4,7-17.3,10.1c-1.9,0.8-3.6,2.8-5.8,2.2c0.5-0.3,0.9-0.7,1.4-1C296,103.2,300.6,100.7,305,98.1z"/>
<path fill="#FFD100" d="M286,10.9c1.1-0.7,2.4-0.5,3.6-0.1c0.2,5.1,0.3,10.2-0.3,15.3c-3-0.3-6.1,0-9,0.5c-5.7,0.9-11.6,2.4-16.3,6
	c-2.8,2.2-5.6,5.2-5.2,9c-0.2,4.3,2.4,8.2,5.8,10.7c2,1.2,1.5,3.8,2.3,5.7c0.7,2.3,2.5,3.9,4.1,5.5c1.2,1,1,2.7,1.3,4.1
	c-1.4,2.2-3.8,3.3-6.3,3.9c-6.3-3.7-12.6-7.4-19-10.8c-0.3-1.9-0.5-3.9-0.3-5.8c0.3-5.5-0.1-11,0.2-16.5c0.1-1.4,0.2-2.9,0.9-4.2
	c1-1.4,2.6-2.3,4-3.2l0.4-0.2c8.8-4.5,17.1-9.8,25.8-14.5C280.7,14.7,283.2,12.6,286,10.9z"/>
<path fill="#FFD100" d="M280,31.2c3.4-0.2,6.8-1,10.1-0.2v0.6c0,1.1,0,2.3-0.1,3.3c0,2.6-0.2,5.2-0.5,7.8
	c-7.5,0.1-15.5,1.4-21.3,6.4c-2.4-1.6-5-4-4.9-7.2c0-1.4-0.1-2.9,1-4C268.5,33.9,274.5,32.5,280,31.2z"/>
<path fill="#C1BFBE" d="M290.1,31.6c4,0.9,8.2,1.1,12.1,2.6c4.7,1.8,9.7,4.3,12.1,9c1.2,1.6-0.9,3.9-2.6,3.4c-1.9-1.9-3.3-4.4-5.6-6
	c-4.6-3.3-10.4-4.7-16-5.6C290.1,33.9,290.1,32.8,290.1,31.6z"/>
<path fill="#FFD100" d="M273,51.3c4.9-2.8,10.7-4.1,16.4-3.8c0.3,1.4,0.6,2.9,0.7,4.3c-0.1,0.5-0.2,1.4-0.2,1.9c-0.2,0-0.7,0-1,0.1
	c-3.6,0.2-7.1-0.3-10.6-0.7c0.2-0.2,0.3-0.3,0.5-0.5C276.8,52.7,274.9,52,273,51.3z"/>
</svg>
